<?xml version="1.0" standalone="no"?>
<!DOCTYPE svg PUBLIC "-//W3C//DTD SVG 20010904//EN"
 "http://www.w3.org/TR/2001/REC-SVG-20010904/DTD/svg10.dtd">
<svg version="1.0" xmlns="http://www.w3.org/2000/svg"
 width="160.000000pt" height="160.000000pt" viewBox="0 0 160.000000 160.000000"
 preserveAspectRatio="xMidYMid meet">
<metadata>
Created by potrace 1.14, written by Peter Selinger 2001-2017
</metadata>
<g transform="translate(0.000000,160.000000) scale(0.100000,-0.100000)"
fill="#000000" stroke="none">
<path d="M1140 1441 c-47 -15 -103 -43 -120 -61 -35 -37 -45 -39 -100 -26 -63
14 -187 13 -242 -2 -33 -9 -40 -7 -65 14 -90 78 -223 101 -317 54 -54 -27
-114 -94 -122 -134 -2 -14 -8 -36 -12 -48 -18 -53 4 -177 47 -257 l18 -35 -48
-66 c-89 -123 -126 -280 -97 -415 26 -120 92 -205 211 -270 80 -44 89 -46 207
-50 98 -4 110 -6 220 -47 73 -26 108 -27 164 -4 21 9 42 13 47 10 5 -3 9 -1 9
4 0 16 98 35 185 37 103 2 147 15 226 66 103 66 152 134 181 250 11 43 17 154
8 154 -1 0 -4 16 -7 35 -2 19 -11 53 -19 75 -8 22 -16 45 -17 52 -2 6 -18 35
-37 64 -67 102 -65 93 -32 167 36 81 44 116 44 191 2 178 -160 296 -332 242z"/>
</g>
</svg>
